<?xml version="1.0" encoding="utf-8"?>
<!-- Generator: Adobe Illustrator 21.0.0, SVG Export Plug-In . SVG Version: 6.00 Build 0)  -->
<svg version="1.1" id="Layer_1" xmlns="http://www.w3.org/2000/svg" xmlns:xlink="http://www.w3.org/1999/xlink" x="0px" y="0px"
	 viewBox="0 0 25 25" style="enable-background:new 0 0 25 25;" xml:space="preserve">
<style type="text/css">
	.st0{fill:#FFFFFF;}
	.st1{fill:#00BCE4;}
</style>
<g>
	<rect x="2.8" y="5.5" class="st0" width="18.8" height="14.4"/>
	<g>
		<path class="st1" d="M0,12.5C0,19.4,5.6,25,12.5,25S25,19.4,25,12.5S19.4,0,12.5,0S0,5.6,0,12.5z M10.9,6.7
			c0.2,0.2,0.3,0.4,0.3,0.7c0,0.3-0.1,0.5-0.3,0.7l-3.5,3.5h12.4c0.6,0,1,0.4,1,1s-0.4,1-1,1H7.4l3.5,3.5c0.3,0.3,0.3,1,0,1.3
			c-0.3,0.3-1,0.3-1.3,0l-5.8-5.8l5.8-5.8C9.9,6.4,10.6,6.4,10.9,6.7z"/>
	</g>
</g>
</svg>
